# xmcd CD database file
#
# Track frame offsets:
#	150
#	28161
#	60601
#	84621
#	104747
#	130883
#	157216
#	180682
#	201735
#	224912
#	246407
#
# Disc length: 3588 seconds
#
# Revision: 0
# Processed by: cddbd v1.5.2PL0 Copyright (c) Steve Scherf et al.
# Submitted via: CDex 1.70beta2
#
DISCID=b80e020b
DTITLE=Mads Kjølby - u turn
DYEAR=2007
DGENRE=Jazz
TTITLE0=Old Sport
TTITLE1=Chasing Luck
TTITLE2=Rumble In The Jungle - Round 6
TTITLE3=Snygling
TTITLE4=U Turn
TTITLE5=Belongingness
TTITLE6=Eleanor Rigby (Lennon/McCartney)
TTITLE7=Soul Eyes (Mal Waldron)
TTITLE8=Back From The USSR
TTITLE9=Ode To An Old Car
TTITLE10=Lying In
EXTD=YEAR: 2007
EXTT0=
EXTT1=
EXTT2=
EXTT3=
EXTT4=
EXTT5=
EXTT6=
EXTT7=
EXTT8=
EXTT9=
EXTT10=
PLAYORDER=
